<?xml version="1.0" standalone="no"?>
<!DOCTYPE svg PUBLIC "-//W3C//DTD SVG 20010904//EN"
 "http://www.w3.org/TR/2001/REC-SVG-20010904/DTD/svg10.dtd">
<svg version="1.0" xmlns="http://www.w3.org/2000/svg"
 width="327.000000pt" height="345.000000pt" viewBox="0 0 327.000000 345.000000"
 preserveAspectRatio="xMidYMid meet">

<g transform="translate(0.000000,345.000000) scale(0.100000,-0.100000)"
fill="#000000" stroke="none">
<path d="M2358 786 l-56 -45 -41 40 c-91 85 -173 37 -244 -144 -36 -89 -41
-97 -66 -97 -29 0 -51 -16 -51 -37 0 -8 12 -13 30 -13 29 0 30 -2 19 -22 -16
-31 -28 -38 -66 -38 -26 0 -33 4 -33 19 0 28 -38 53 -62 40 -22 -12 -23 -37
-3 -67 13 -18 14 -28 4 -62 -16 -54 -74 -120 -105 -120 -21 0 -24 4 -24 40 0
99 97 249 155 238 59 -12 33 44 -38 82 l-45 24 -42 -19 c-50 -23 -113 -100
-136 -170 -23 -65 -160 -212 -180 -192 -6 6 38 139 78 235 l30 72 50 0 c42 0
49 3 46 18 -2 12 -14 18 -41 20 -32 3 -37 6 -31 20 15 34 7 74 -22 102 -39 39
-68 43 -72 10 -2 -14 -12 -48 -23 -75 -15 -38 -27 -54 -49 -62 -31 -12 -42
-43 -15 -43 8 0 15 -6 15 -14 0 -41 -154 -286 -180 -286 -18 0 -11 29 35 140
51 123 54 146 24 184 -46 58 -53 55 -109 -51 -29 -54 -74 -132 -101 -174 -95
-148 -108 -134 -38 41 51 128 52 132 37 164 -15 31 -73 70 -90 60 -4 -3 -8
-16 -8 -29 0 -13 -20 -73 -45 -134 -55 -135 -58 -178 -14 -215 58 -49 98 -37
160 48 27 36 29 37 29 15 0 -34 23 -63 65 -83 41 -20 59 -13 118 42 20 20 37
30 37 24 0 -17 48 -62 78 -73 31 -12 73 7 143 64 53 43 55 44 65 24 16 -37 92
-87 132 -87 30 0 43 8 82 49 26 26 55 68 64 92 16 43 19 45 52 41 19 -2 34 -8
34 -12 0 -4 -12 -38 -26 -76 -29 -77 -27 -114 8 -151 13 -13 33 -23 50 -23 23
0 28 4 28 23 0 26 28 111 85 259 l37 97 52 3 c37 2 51 7 51 18 0 11 -13 16
-43 18 -32 2 -42 7 -38 17 36 94 71 166 88 181 21 19 21 19 14 -9 -21 -89 -14
-159 15 -130 6 6 17 10 23 8 6 -2 26 20 45 50 34 54 107 133 115 124 2 -2 -39
-105 -90 -229 -97 -233 -108 -278 -76 -316 41 -51 82 -52 89 -2 6 40 34 118
110 302 40 99 73 192 73 206 0 30 -30 67 -67 81 -34 13 -32 14 -95 -35z"/>
<path d="M2762 804 c-169 -84 -286 -383 -202 -519 26 -42 118 -90 170 -89 79
2 169 85 233 213 35 70 42 96 45 156 4 64 1 76 -17 94 -12 12 -25 21 -29 21
-5 0 -7 -33 -4 -73 3 -50 -1 -91 -11 -128 -48 -162 -210 -294 -263 -214 -36
54 -14 215 43 328 33 66 108 139 157 154 37 12 40 11 67 -18 25 -26 30 -28 35
-14 12 29 -13 62 -67 89 -66 33 -92 33 -157 0z"/>
<path d="M609 800 c-45 -24 -119 -105 -158 -173 -65 -115 -89 -254 -57 -332
16 -37 69 -76 129 -95 34 -11 43 -9 93 15 98 48 183 183 205 326 14 86 1 132
-37 137 -21 3 -21 1 -12 -44 27 -125 -73 -339 -181 -387 l-45 -20 -18 23 c-22
27 -24 102 -4 177 54 204 224 393 268 298 6 -14 15 -25 20 -25 19 0 20 33 2
57 -45 61 -136 79 -205 43z"/>
</g>
</svg>
